<?xml version="1.0" standalone="no"?><!DOCTYPE svg PUBLIC "-//W3C//DTD SVG 1.1//EN" "http://www.w3.org/Graphics/SVG/1.1/DTD/svg11.dtd">
<svg class="icon" width="200px" height="200.00px" viewBox="0 0 1024 1024" version="1.1" xmlns="http://www.w3.org/2000/svg">
<path fill="#333333" d="M88 448h400V172c0-24.3 19.7-44 44-44s44 19.7 44 44v680c0 24.3-19.7 44-44 44s-44-19.7-44-44V536H88v316c0 24.3-19.7 44-44 44S0 876.3 0 852V172c0-24.3 19.7-44 44-44s44 19.7 44 44v276z m936.246 331.56h-63.298v116.748h-75.957V779.56H674v-79.472L884.991 404h75.957v312.264h63.298v63.296zM735.89 716.264h149.1V499.648h-1.406L735.89 716.264z" />
</svg>