<?xml version="1.0" standalone="no"?><!DOCTYPE svg PUBLIC "-//W3C//DTD SVG 1.1//EN" "http://www.w3.org/Graphics/SVG/1.1/DTD/svg11.dtd">
<svg class="icon" width="200px" height="200.00px" viewBox="0 0 1024 1024" version="1.1" xmlns="http://www.w3.org/2000/svg">
  <path fill="#333333" d="M742.89 394h254.597v71.736H802.672l-25.32 125.187 1.407 1.407c10.784-12.19 24.499-21.45 41.144-27.78 16.645-6.33 33.172-9.495 49.583-9.495 24.381 0 46.183 4.102 65.407 12.308 19.224 8.205 35.4 19.692 48.528 34.461 13.129 14.77 23.092 32.235 29.89 52.396 6.8 20.161 10.198 41.963 10.198 65.406 0 19.693-3.164 39.971-9.494 60.836-6.33 20.864-16.41 39.853-30.242 56.967-13.832 17.113-31.532 31.179-53.1 42.197-21.568 11.019-47.355 16.528-77.363 16.528-23.913 0-46.067-3.165-66.463-9.495-20.396-6.33-38.33-15.824-53.802-28.483-15.473-12.66-27.78-28.25-36.924-46.77-9.143-18.52-14.183-40.204-15.121-65.054h80.177c2.344 26.725 11.487 47.238 27.429 61.538 15.941 14.3 37.04 21.45 63.297 21.45 16.88 0 31.18-2.812 42.902-8.439 11.721-5.626 21.216-13.362 28.484-23.209 7.267-9.846 12.425-21.333 15.472-34.461 3.048-13.129 4.572-27.194 4.572-42.198 0-13.597-1.876-26.608-5.627-39.033-3.75-12.425-9.377-23.326-16.879-32.703-7.502-9.378-17.231-16.88-29.187-22.506-11.956-5.626-25.905-8.44-41.847-8.44-16.88 0-32.703 3.165-47.473 9.495-14.77 6.33-25.436 18.169-32 35.517h-80.177L742.891 394zM88 448h400V172c0-24.3 19.7-44 44-44s44 19.7 44 44v680c0 24.3-19.7 44-44 44s-44-19.7-44-44V536H88v316c0 24.3-19.7 44-44 44S0 876.3 0 852V172c0-24.3 19.7-44 44-44s44 19.7 44 44v276z" />
</svg>