<?xml version="1.0" standalone="no"?><!DOCTYPE svg PUBLIC "-//W3C//DTD SVG 1.1//EN" "http://www.w3.org/Graphics/SVG/1.1/DTD/svg11.dtd">
<svg class="icon" width="200px" height="200.00px" viewBox="0 0 1024 1024" version="1.1" xmlns="http://www.w3.org/2000/svg">
<path fill="#333333" d="M216.576 154.325333A42.666667 42.666667 0 0 1 256 128h448a42.666667 42.666667 0 0 1 30.165333 12.501333l64 64a42.666667 42.666667 0 1 1-60.330666 60.330667L686.336 213.333333H358.997333l268.501334 268.501334a42.666667 42.666667 0 0 1 0 60.330666L358.997333 810.666667h327.338667l51.498667-51.498667a42.666667 42.666667 0 0 1 60.330666 60.330667l-64 64A42.666667 42.666667 0 0 1 704 896H256a42.666667 42.666667 0 0 1-30.165333-72.832L537.002667 512 225.834667 200.832a42.666667 42.666667 0 0 1-9.258667-46.506667zM128 64a42.666667 42.666667 0 0 1 42.666667 42.666667v810.666666a42.666667 42.666667 0 1 1-85.333334 0v-810.666666a42.666667 42.666667 0 0 1 42.666667-42.666667zM896 64a42.666667 42.666667 0 0 1 42.666667 42.666667v810.666666a42.666667 42.666667 0 1 1-85.333334 0v-810.666666a42.666667 42.666667 0 0 1 42.666667-42.666667z" />
</svg>