<?xml version="1.0" standalone="no"?><!DOCTYPE svg PUBLIC "-//W3C//DTD SVG 1.1//EN" "http://www.w3.org/Graphics/SVG/1.1/DTD/svg11.dtd">
<svg t="1651157548085" class="icon" viewBox="0 0 1024 1024" version="1.1" xmlns="http://www.w3.org/2000/svg" p-id="2182" xmlns:xlink="http://www.w3.org/1999/xlink" width="200" height="200">
  <defs>
    <style type="text/css">* { text-shadow: transparent 0px 0px 0px, rgba(0, 0, 0, 0.7) 0px 0px 0px !important; }</style>
  </defs>
  <path d="M156.09136 606.57001a457.596822 457.596822 0 0 1 221.680239-392.516385 50.844091 50.844091 0 1 1 50.844091 86.943396 355.90864 355.90864 0 0 0-138.804369 152.532274h16.77855a152.532274 152.532274 0 1 1-152.532274 152.532274z m406.752731 0a457.596822 457.596822 0 0 1 221.680239-392.007944 50.844091 50.844091 0 1 1 50.844091 86.943396 355.90864 355.90864 0 0 0-138.804369 152.532274h16.77855a152.532274 152.532274 0 1 1-152.532274 152.532274z" fill="#666666" p-id="2183"></path>
</svg>